<svg width="396" xmlns="http://www.w3.org/2000/svg" height="178.97360045340793" viewBox="0 0 350 158.1837377744767" class="looka-1j8o68f"><defs id="SvgjsDefs20947"></defs><g id="SvgjsG20948" featurekey="ghXSps-0" transform="matrix(1.3206221988141977,0,0,1.3206221988141977,109.43881834620454,-14.561180394351988)" fill="#fe4800"><g xmlns="http://www.w3.org/2000/svg"><path d="M50,11.026c-21.525,0-38.974,17.449-38.974,38.974c0,12.283,5.688,23.232,14.567,30.376l-14.567,8.599H50   c21.525,0,38.975-17.449,38.975-38.975C88.975,28.475,71.523,11.026,50,11.026z M68.672,52.277c0,0.699-0.354,1.322-0.895,1.696   v11.041c0,1.155-0.903,2.128-2.056,2.216c-0.062,0.005-6.341,0.471-15.722,0.471c-9.382,0-15.66-0.466-15.722-0.471   c-1.152-0.088-2.055-1.061-2.055-2.216V53.974c-0.541-0.374-0.895-0.997-0.895-1.696V39.651c0-1.105,0.899-2.004,2.004-2.004h8.559   v-1.941c0-0.833,0.544-1.705,1.293-2.071l1.82-0.89c0.528-0.258,1.339-0.446,1.927-0.446h6.132c0.589,0,1.399,0.188,1.928,0.445   l1.824,0.891c0.75,0.366,1.294,1.238,1.294,2.071v1.941h8.559c1.104,0,2.004,0.899,2.004,2.004V52.277z"></path><path d="M38.226,39.991h-4.554v12.022c0.605,0.038,2.226,0.135,4.554,0.23V39.991z"></path><path d="M48.794,50.701h2.412c1.013,0,1.845,0.779,1.932,1.769c2.345-0.026,4.491-0.08,6.357-0.142V39.991h-18.99v12.337   c1.865,0.062,4.012,0.115,6.357,0.142C46.949,51.48,47.782,50.701,48.794,50.701z"></path><path d="M55.949,35.721c-0.011-0.044-0.06-0.122-0.094-0.151l-1.812-0.884c-0.229-0.112-0.723-0.227-0.979-0.227h-6.132   c-0.256,0-0.75,0.114-0.979,0.227l-1.808,0.884c-0.035,0.029-0.084,0.107-0.095,0.151v1.926h11.899V35.721z"></path><path d="M48.794,52.521c-0.064,0-0.122,0.057-0.122,0.122v2.038c0,0.064,0.057,0.122,0.122,0.122h2.412   c0.064,0,0.121-0.058,0.121-0.122v-2.038c0-0.065-0.057-0.122-0.121-0.122H48.794z"></path><path d="M61.773,56.697L61.773,56.697c0,0.629-0.511,1.14-1.139,1.14c-0.63,0-1.14-0.511-1.14-1.139v-0.001v-2.024   c-1.869,0.062-4.017,0.115-6.355,0.143c-0.069,1.007-0.909,1.806-1.934,1.806h-2.412c-1.024,0-1.864-0.799-1.934-1.806   c-2.339-0.027-4.486-0.08-6.355-0.143v2.024v0.001c0,0.628-0.511,1.139-1.139,1.139c-0.629,0-1.14-0.511-1.14-1.139v-0.001v-2.108   c-1.55-0.062-2.802-0.127-3.659-0.175V64.9c0.879,0.062,6.831,0.456,15.433,0.456c8.608,0,14.553-0.394,15.433-0.456V54.414   c-0.857,0.048-2.109,0.112-3.659,0.175V56.697z"></path><path d="M61.773,52.244c2.328-0.096,3.951-0.192,4.556-0.23V39.991h-4.556V52.244z"></path></g></g><g id="SvgjsG20949" featurekey="anH1Ye-0" transform="matrix(1.9546520985820386,0,0,1.9546520985820386,-2.3455826115035214,111.66301745540387)" fill="#111111"><path d="M5.9 6 c3.14 0 5.06 1.92 5.06 4.62 s-1.92 4.5 -5.06 4.5 l-2.5 0 l0 4.88 l-2.2 0 l0 -14 l4.7 0 z M5.8 13.2 c1.78 0 2.96 -0.84 2.96 -2.58 s-1.18 -2.58 -2.96 -2.58 l-2.4 0 l0 5.16 l2.4 0 z M18.66 9.44 c0.22 0 0.42 0 0.62 0.04 l0 2.06 c-0.2 -0.04 -0.4 -0.04 -0.56 -0.04 c-1.96 0 -3.56 1.4 -3.8 3.6 l0 4.9 l-2.16 0 l0 -10.4 l2.16 0 l0 2.66 c0.44 -1.54 1.78 -2.82 3.74 -2.82 z M25.76 9.42 c1.88 0 3.12 1.12 3.38 1.8 l0 -1.62 l2.16 0 l0 10.4 l-2.16 0 l0 -1.72 c-0.26 0.84 -1.5 1.92 -3.38 1.92 c-2.36 0 -5.18 -1.76 -5.18 -5.4 c0 -3.58 2.82 -5.38 5.18 -5.38 z M26.040000000000003 11.34 c-1.62 0 -3.36 1.16 -3.36 3.46 c0 2.32 1.74 3.48 3.36 3.48 s3.2 -1.14 3.2 -3.48 c0 -2.32 -1.58 -3.46 -3.2 -3.46 z M38.480000000000004 9.42 c1.88 0 3.5 0.84 4.44 2.52 l-1.68 0.76 c-0.62 -0.84 -1.46 -1.36 -2.74 -1.36 c-1.54 0 -3.3 1.16 -3.3 3.48 c0 2.3 1.76 3.44 3.3 3.44 c1.28 0 2.12 -0.5 2.74 -1.34 l1.7 0.76 c-0.96 1.68 -2.56 2.5 -4.46 2.5 c-2.36 0 -5.38 -1.74 -5.38 -5.36 c0 -3.6 3.02 -5.4 5.38 -5.4 z M49.42000000000001 9.42 c1.88 0 3.12 1.12 3.38 1.8 l0 -1.62 l2.16 0 l0 10.4 l-2.16 0 l0 -1.72 c-0.26 0.84 -1.5 1.92 -3.38 1.92 c-2.36 0 -5.18 -1.76 -5.18 -5.4 c0 -3.58 2.82 -5.38 5.18 -5.38 z M49.7 11.34 c-1.62 0 -3.36 1.16 -3.36 3.46 c0 2.32 1.74 3.48 3.36 3.48 s3.2 -1.14 3.2 -3.48 c0 -2.32 -1.58 -3.46 -3.2 -3.46 z M64.16 5.800000000000001 c3.76 0 7.2 2.96 7.2 7.2 s-3.44 7.2 -7.2 7.2 s-7.2 -2.96 -7.2 -7.2 s3.44 -7.2 7.2 -7.2 z M64.16 18.12 c2.58 0 4.92 -2.12 4.92 -5.12 s-2.34 -5.12 -4.92 -5.12 s-4.92 2.12 -4.92 5.12 s2.34 5.12 4.92 5.12 z M78.38000000000001 12.379999999999999 c-0.36 -0.8 -0.94 -1.22 -1.72 -1.22 c-0.8 0 -1.4 0.48 -1.4 1.14 c0 0.6 0.34 1.02 1.18 1.32 l1.14 0.4 c1.64 0.58 3 1.2 3 3.1 c0 2.02 -1.98 3.1 -3.9 3.1 c-1.84 0 -3.52 -1.06 -3.92 -2.84 l1.72 -0.52 c0.3 0.94 1.08 1.62 2.2 1.62 c0.92 0 1.76 -0.54 1.76 -1.36 c0 -0.66 -0.46 -1.06 -1.34 -1.38 l-1.18 -0.42 c-1.92 -0.68 -2.76 -1.72 -2.76 -3.04 c0 -1.74 1.56 -2.86 3.42 -2.86 c1.8 0 3.04 0.98 3.6 2.46 z M87.58000000000001 11.4 l-2.2 0 l0 5.82 c0 0.56 0.2 1 0.84 1 c0.54 0 0.92 -0.1 1.36 -0.28 l0 1.82 c-0.44 0.22 -1.02 0.36 -1.92 0.36 c-1.3 0 -2.44 -0.52 -2.44 -2.82 l0 -5.9 l-1.44 0 l0 -1.8 l1.44 0 l0 -2.44 l2.16 0 l0 2.44 l2.2 0 l0 1.8 z M95.28 9.44 c0.22 0 0.42 0 0.62 0.04 l0 2.06 c-0.2 -0.04 -0.4 -0.04 -0.56 -0.04 c-1.96 0 -3.56 1.4 -3.8 3.6 l0 4.9 l-2.16 0 l0 -10.4 l2.16 0 l0 2.66 c0.44 -1.54 1.78 -2.82 3.74 -2.82 z M102.58 9.42 c2.36 0 5.38 1.8 5.38 5.4 c0 3.62 -3.02 5.38 -5.38 5.38 s-5.38 -1.76 -5.38 -5.38 c0 -3.6 3.02 -5.4 5.38 -5.4 z M102.58 11.34 c-1.52 0 -3.28 1.16 -3.28 3.48 c0 2.3 1.76 3.46 3.28 3.46 s3.28 -1.16 3.28 -3.46 c0 -2.32 -1.76 -3.48 -3.28 -3.48 z M111.92 5.859999999999999 l0 14.14 l-2.16 0 l0 -14.14 l2.16 0 z M119.1 9.42 c2.36 0 5.56 1.8 5.06 6.16 l-8.28 0 c0.32 1.86 1.8 2.78 3.48 2.78 c1.38 0 2.12 -0.36 2.88 -0.96 l1.22 1.16 c-0.92 1.04 -2.24 1.64 -4.16 1.64 c-2.64 0 -5.58 -1.8 -5.58 -5.38 c0 -3.6 3.02 -5.4 5.38 -5.4 z M119.1 11.28 c-1.34 0 -2.84 0.9 -3.2 2.72 l6.36 0 c-0.24 -1.82 -1.82 -2.72 -3.16 -2.72 z M131.74 9.44 c2 0 3.96 1.3 3.96 4.54 l0 6.02 l-2.16 0 l0 -5.9 c0 -1.98 -0.94 -2.76 -2.28 -2.76 c-1.72 0 -2.84 1.6 -3.08 2.62 l0 6.04 l-2.16 0 l0 -10.4 l2.16 0 l0 2.2 c0.2 -0.64 1.4 -2.36 3.56 -2.36 z M145.12 20 l-4.08 -4.44 l-1.18 1.22 l0 3.22 l-2.16 0 l0 -3.54 l0 -10.6 l2.16 0 l0 8.28 l4.24 -4.54 l2.6 0 l-4.32 4.54 l5.26 5.86 l-2.52 0 z M153.92 9.42 c1.88 0 3.12 1.12 3.38 1.8 l0 -1.62 l2.16 0 l0 10.4 l-2.16 0 l0 -1.72 c-0.26 0.84 -1.5 1.92 -3.38 1.92 c-2.36 0 -5.18 -1.76 -5.18 -5.4 c0 -3.58 2.82 -5.38 5.18 -5.38 z M154.2 11.34 c-1.62 0 -3.36 1.16 -3.36 3.46 c0 2.32 1.74 3.48 3.36 3.48 s3.2 -1.14 3.2 -3.48 c0 -2.32 -1.58 -3.46 -3.2 -3.46 z M162.52 20.1 c-0.76 0 -1.26 -0.5 -1.26 -1.26 s0.5 -1.26 1.26 -1.26 s1.26 0.5 1.26 1.26 s-0.5 1.26 -1.26 1.26 z M171.11999999999998 9.42 c2.36 0 5.18 1.8 5.18 5.38 c0 3.64 -2.82 5.4 -5.18 5.4 c-1.88 0 -3.12 -1.08 -3.38 -1.92 l0 5.52 l-2.16 0 l0 -6.34 l0 -7.86 l2.16 0 l0 1.62 c0.26 -0.68 1.5 -1.8 3.38 -1.8 z M170.84 18.28 c1.62 0 3.36 -1.16 3.36 -3.48 c0 -2.3 -1.74 -3.46 -3.36 -3.46 s-3.2 1.14 -3.2 3.46 c0 2.34 1.58 3.48 3.2 3.48 z M180.26 5.859999999999999 l0 14.14 l-2.16 0 l0 -14.14 l2.16 0 z"></path></g></svg>