<svg xmlns="http://www.w3.org/2000/svg" width="720" height="472" viewBox="0 0 720 472" version="1.1"><path d="M 295.170 273.716 C 291.486 274.418, 285.253 281.349, 283.945 286.197 C 282.520 291.479, 283.305 299.012, 285.705 303.089 C 290.657 311.502, 303.801 313.838, 312.267 307.810 C 318.508 303.366, 320.851 291.605, 317.110 283.500 C 313.101 274.813, 306.010 271.651, 295.170 273.716 M 141 292.500 L 141 311 145 311 L 149 311 149 304 L 149 297 156.599 297 C 163.810 297, 164.346 296.842, 167.099 293.894 C 169.443 291.385, 170 289.892, 170 286.117 C 170 276.962, 165.241 274, 150.532 274 L 141 274 141 292.500 M 421 292.500 L 421 311 424.500 311 L 428 311 428 292.500 L 428 274 424.500 274 L 421 274 421 292.500 M 465 292.563 L 465 311.127 468.250 310.813 C 471.357 310.514, 471.513 310.295, 471.802 305.830 C 472.296 298.165, 474.197 297.917, 478.475 304.959 C 481.962 310.699, 482.341 311, 486.072 311 C 488.233 311, 490 310.689, 490 310.308 C 490 309.927, 487.678 306.079, 484.839 301.755 L 479.679 293.895 484.552 288.947 L 489.425 284 485.497 284 C 482.159 284, 480.850 284.708, 476.784 288.712 L 472 293.425 472 283.712 L 472 274 468.500 274 L 465 274 465 292.563 M 569.227 292.250 L 569.500 310.500 572.750 310.813 L 576 311.127 576 292.563 L 576 274 572.477 274 L 568.955 274 569.227 292.250 M 354 279.930 C 354 283.245, 353.647 283.911, 351.750 284.180 C 350.304 284.386, 349.386 285.304, 349.180 286.750 C 348.920 288.582, 349.338 289, 351.430 289 L 354 289 354 298.443 C 354 307.068, 354.193 308.022, 356.223 309.443 C 357.445 310.299, 360.145 311, 362.223 311 C 365.516 311, 366 310.700, 366 308.661 C 366 307.135, 365.130 305.924, 363.500 305.182 C 361.156 304.114, 361 303.574, 361 296.521 C 361 289.165, 361.055 289, 363.500 289 C 365.500 289, 366 288.500, 366 286.500 C 366 284.500, 365.500 284, 363.500 284 C 361.250 284, 361 283.600, 361 280 C 361 276.095, 360.917 276, 357.500 276 C 354.094 276, 354 276.105, 354 279.930 M 149 285.500 L 149 291 154.443 291 C 158.935 291, 160.159 290.611, 161.443 288.777 C 163.501 285.840, 163.407 284.407, 161 282 C 159.533 280.533, 157.667 280, 154 280 L 149 280 149 285.500 M 294.766 282.918 C 291.697 285.660, 291.500 286.237, 291.500 292.500 C 291.500 298.763, 291.697 299.340, 294.766 302.082 C 298.365 305.298, 301.664 305.742, 305.855 303.575 C 309.335 301.775, 311 298.155, 311 292.387 C 311 281.416, 302.195 276.280, 294.766 282.918 M 175 297.500 L 175 311 178.500 311 L 182 311 182 302.955 C 182 295.746, 182.255 294.654, 184.455 292.455 C 185.805 291.105, 188.055 290, 189.455 290 C 191.616 290, 192 289.548, 192 287 C 192 284.370, 191.649 284, 189.155 284 C 187.554 284, 185.496 284.899, 184.448 286.057 L 182.586 288.114 181.825 286.057 C 181.287 284.601, 180.179 284, 178.032 284 L 175 284 175 297.500 M 199.500 285.155 C 194.143 288.085, 193.571 292, 198.500 292 C 200.425 292, 202 291.566, 202 291.035 C 202 289.398, 206.057 287.798, 208.593 288.434 C 210.290 288.860, 211 289.738, 211 291.412 C 211 294.090, 210.174 294.551, 203.616 295.535 C 197.260 296.488, 194 299.213, 194 303.573 C 194 308.504, 196.878 311, 202.566 311 C 205.077 311, 208.093 310.485, 209.268 309.857 C 210.871 308.999, 211.500 308.999, 211.786 309.857 C 211.995 310.485, 213.743 311, 215.669 311 L 219.172 311 218.836 299.410 C 218.524 288.639, 218.333 287.684, 216.139 285.910 C 213.448 283.732, 202.970 283.257, 199.500 285.155 M 230.190 285.353 C 226.365 287.476, 224.014 292.017, 224.007 297.300 C 223.993 306.863, 229.107 311.570, 238.648 310.779 C 244.530 310.291, 247.307 308.426, 248.884 303.903 C 249.858 301.108, 249.781 301, 246.813 301 C 244.808 301, 242.919 301.875, 241.412 303.500 C 236.584 308.710, 231 305.373, 231 297.277 C 231 292.311, 233.597 289, 237.492 289 C 238.900 289, 240.526 289.869, 241.232 291 C 242.112 292.409, 243.564 293, 246.147 293 C 249.328 293, 249.743 292.734, 249.287 290.988 C 248.997 289.882, 247.430 287.857, 245.804 286.488 C 243.469 284.523, 241.758 284.007, 237.673 284.035 C 234.828 284.055, 231.460 284.648, 230.190 285.353 M 256.923 286.923 C 255.315 288.531, 254 290.331, 254 290.923 C 254 292.888, 260.449 292.125, 262.321 289.938 C 264.444 287.459, 268.786 287.658, 270.399 290.309 C 271.926 292.817, 269.261 294.639, 262.761 295.533 C 254.057 296.730, 250.539 302.601, 255.073 308.365 C 256.839 310.611, 257.916 311, 262.373 311 C 265.248 311, 268.140 310.460, 268.800 309.800 C 269.733 308.867, 270.267 308.867, 271.200 309.800 C 271.860 310.460, 273.772 311.001, 275.450 311.002 L 278.500 311.004 278.190 299.527 C 277.894 288.560, 277.765 287.961, 275.305 286.025 C 273.325 284.468, 271.243 284, 266.288 284 C 260.501 284, 259.549 284.297, 256.923 286.923 M 327.500 285.195 C 324.714 286.775, 324.033 288.026, 324.015 291.595 C 323.995 295.605, 326.241 297.527, 332.917 299.214 C 339.289 300.824, 341.534 303.349, 338.559 305.559 C 335.724 307.664, 333.210 307.330, 330.588 304.500 C 327.733 301.420, 323 301.052, 323 303.911 C 323 304.962, 324.439 307.033, 326.198 308.513 C 329.129 310.979, 329.971 311.171, 336.318 310.812 C 344.248 310.364, 347 308.234, 347 302.544 C 347 298.384, 344.821 296.489, 338.083 294.786 C 332.201 293.300, 329.409 290.638, 332 288.987 C 334.369 287.477, 336.834 287.834, 339 290 C 340.100 291.100, 342.308 292, 343.906 292 C 346.332 292, 346.725 291.665, 346.283 289.976 C 345.289 286.174, 341.201 283.997, 335.115 284.030 C 332.027 284.047, 328.600 284.571, 327.500 285.195 M 370 297.500 L 370 311 373.397 311 L 376.795 311 377.147 302.412 C 377.459 294.820, 377.774 293.601, 379.861 291.912 C 381.159 290.860, 383.297 290, 384.611 290 C 386.599 290, 387 289.496, 387 287 C 387 284.411, 386.632 284, 384.314 284 C 382.837 284, 380.587 284.978, 379.314 286.174 L 377 288.349 377 286.174 C 377 284.356, 376.427 284, 373.500 284 L 370 284 370 297.500 M 394 286.193 C 387.554 290.558, 386.777 301.500, 392.483 307.551 C 395.516 310.766, 396.159 311, 401.968 311 C 407.693 311, 408.470 310.730, 411.521 307.679 C 417.207 301.993, 417.198 292.353, 411.503 287.003 C 407.674 283.405, 398.728 282.991, 394 286.193 M 440.030 285.279 C 433.770 288.447, 431.247 297.503, 434.635 304.643 C 436.718 309.032, 440.553 311, 447.027 311 C 451.360 311, 452.606 310.547, 455.077 308.077 C 456.685 306.469, 458 304.669, 458 304.077 C 458 302.504, 452.821 302.821, 450.559 304.532 C 447.852 306.579, 444.362 306.362, 442 304 C 437.877 299.877, 439.193 299, 449.500 299 L 459 299 459 295.950 C 459 286.830, 448.566 280.960, 440.030 285.279 M 498.357 284.992 C 496.279 285.830, 493 289.644, 493 291.223 C 493 291.650, 494.692 292, 496.759 292 C 499.436 292, 500.879 291.424, 501.768 290 C 503.155 287.779, 506.947 287.347, 508.800 289.200 C 510.761 291.161, 510.206 293.920, 507.750 294.424 C 493.716 297.304, 492.600 297.976, 492.600 303.544 C 492.600 308.640, 495.329 311, 501.221 311 C 503.922 311, 507.093 310.485, 508.268 309.857 C 509.871 308.999, 510.500 308.999, 510.786 309.857 C 510.995 310.485, 512.592 311, 514.333 311.001 L 517.500 311.002 517.220 300.751 C 516.864 287.716, 516.594 286.591, 513.477 285.171 C 510.520 283.824, 501.516 283.717, 498.357 284.992 M 538 302 L 538 320 541.500 320 L 545 320 545 313.943 L 545 307.887 547.223 309.443 C 549.452 311.005, 555.478 311.521, 558.398 310.401 C 562.175 308.951, 564.376 302.686, 564.106 294.150 C 563.944 289.021, 558.482 284, 553.065 284 C 550.790 284, 547.820 284.727, 546.465 285.615 C 544.196 287.102, 544 287.102, 544 285.615 C 544 284.487, 543.095 284, 541 284 L 538 284 538 302 M 397.557 291.223 C 396.701 292.445, 396 295.270, 396 297.500 C 396 302.730, 398.271 306, 401.902 306 C 405.925 306, 408.500 302.683, 408.500 297.500 C 408.500 294.685, 407.845 292.486, 406.595 291.105 C 404.057 288.301, 399.562 288.359, 397.557 291.223 M 441.557 291.223 C 440.701 292.445, 440 293.795, 440 294.223 C 440 294.650, 442.700 295, 446 295 C 452.459 295, 453.628 293.783, 450.171 290.655 C 447.561 288.293, 443.418 288.566, 441.557 291.223 M 546.488 291.013 C 545.297 292.329, 544.667 294.575, 544.667 297.500 C 544.667 302.848, 547.052 306, 551.098 306 C 554.729 306, 557 302.730, 557 297.500 C 557 295.270, 556.299 292.445, 555.443 291.223 C 553.468 288.403, 548.946 288.297, 546.488 291.013 M 206.413 298.943 C 202.195 299.951, 201 300.816, 201 302.859 C 201 309.268, 209.973 307.477, 211.566 300.750 C 212.273 297.763, 211.897 297.632, 206.413 298.943 M 265.646 298.975 C 260.142 300.038, 258.088 303.906, 261.934 305.965 C 264.805 307.501, 266.767 307.233, 269 305 C 270.897 303.103, 271.847 297.870, 270.250 298.115 C 269.837 298.178, 267.766 298.565, 265.646 298.975 M 505.500 298.738 C 501.577 299.312, 500 300.707, 500 303.603 C 500 306.763, 504.071 307.839, 507.507 305.587 C 509.240 304.452, 510 303.047, 510 300.977 C 510 299.340, 509.663 298.067, 509.250 298.150 C 508.837 298.232, 507.150 298.497, 505.500 298.738 M 523.190 306.750 C 523.483 310.296, 523.704 310.517, 527.250 310.810 L 531 311.121 531 307.060 L 531 303 526.940 303 L 522.879 303 523.190 306.750 M 252.136 341.687 C 252.211 344.884, 252.464 346.515, 252.698 345.310 C 252.988 343.815, 253.976 343.023, 255.812 342.810 C 258.063 342.550, 258.500 342.012, 258.500 339.500 C 258.500 336.846, 258.125 336.464, 255.250 336.187 L 252 335.873 252.136 341.687 M 270.136 341.687 C 270.211 344.884, 270.467 346.488, 270.706 345.250 C 271.243 342.461, 273.569 342.326, 275 345 C 275.589 346.100, 276.515 347, 277.058 347 C 277.602 347, 277.309 345.875, 276.408 344.500 C 275.317 342.835, 275.165 342, 275.951 342 C 276.650 342, 277.004 340.877, 276.816 339.250 C 276.553 336.959, 275.958 336.448, 273.250 336.187 L 270 335.873 270.136 341.687 M 289.719 341.500 C 288.236 344.525, 287.481 347, 288.042 347 C 288.604 347, 289.322 346.325, 289.638 345.500 C 290.426 343.448, 295.616 343.557, 296.417 345.643 C 296.763 346.547, 297.338 346.996, 297.693 346.640 C 298.397 345.936, 294.049 336, 293.037 336 C 292.696 336, 291.203 338.475, 289.719 341.500 M 309.381 338.541 C 308.056 340.564, 307.942 341.577, 308.824 343.513 C 310.033 346.165, 314.547 347.853, 316.148 346.252 C 316.817 345.583, 316.257 345.250, 314.461 345.250 C 311.662 345.250, 310.041 343.655, 310.015 340.872 C 309.994 338.567, 312.629 336.670, 314.995 337.288 C 316.098 337.577, 317 337.405, 317 336.906 C 317 336.408, 315.660 336, 314.023 336 C 311.938 336, 310.547 336.762, 309.381 338.541 M 329.624 341.250 C 327.406 346.234, 327.048 349.453, 329.125 345.742 C 330.375 343.507, 333.784 343.511, 336.341 345.750 C 338.533 347.670, 338.552 347.797, 335.501 340.250 C 334.556 337.913, 333.373 336, 332.872 336 C 332.371 336, 330.909 338.363, 329.624 341.250 M 361 341.500 C 361 347.438, 362.633 349.070, 363.251 343.750 L 363.628 340.500 364.912 343.750 C 366.511 347.798, 367.844 347.874, 369.306 344 C 370.773 340.113, 371.774 340.197, 372.277 344.250 C 372.524 346.246, 372.742 345.281, 372.840 341.750 C 372.928 338.587, 372.639 336, 372.197 336 C 371.755 336, 370.470 337.908, 369.340 340.241 L 367.286 344.481 365.123 340.241 C 363.933 337.908, 362.518 336, 361.980 336 C 361.441 336, 361 338.475, 361 341.500 M 385.554 341.250 C 383.345 346.220, 383.034 349.478, 385.125 345.742 C 385.661 344.784, 387.180 344, 388.500 344 C 389.820 344, 391.339 344.784, 391.875 345.742 C 392.411 346.700, 393.104 347.230, 393.414 346.919 C 394.174 346.159, 389.830 336, 388.745 336 C 388.273 336, 386.837 338.363, 385.554 341.250 M 404 341.500 C 404 344.525, 404.450 347, 405 347 C 405.550 347, 406 346.100, 406 345 C 406 343.900, 406.446 343, 406.992 343 C 407.537 343, 408.545 343.900, 409.232 345 C 410.851 347.592, 412.398 347.612, 411.012 345.023 C 410.247 343.593, 410.290 342.509, 411.167 341.104 C 412.813 338.468, 410.739 336, 406.878 336 C 404.056 336, 404 336.108, 404 341.500 M 424.714 336.882 L 427.929 337.500 424.963 342.250 L 421.996 347 426.748 346.840 C 430.399 346.717, 430.747 346.586, 428.250 346.277 C 426.462 346.055, 425 345.668, 425 345.417 C 425 345.166, 426.125 343.178, 427.500 341 C 428.875 338.822, 430 336.806, 430 336.520 C 430 336.234, 428.087 336.059, 425.750 336.132 C 421.741 336.256, 421.683 336.298, 424.714 336.882 M 441 341.500 C 441 346.944, 441.030 347, 444 347 C 445.650 347, 447 346.550, 447 346 C 447 345.450, 445.875 345, 444.500 345 C 441.306 345, 441.063 342.026, 444.250 341.937 L 446.500 341.873 444.250 340.969 C 441.122 339.711, 441.415 337.222, 444.750 336.716 C 447.310 336.329, 447.275 336.289, 444.250 336.150 L 441 336 441 341.500 M 458.192 341.500 C 458.295 347.176, 458.333 347.265, 458.900 343.157 L 459.500 338.814 462.500 342.883 C 464.150 345.121, 465.837 346.963, 466.250 346.976 C 466.663 346.989, 467 344.525, 467 341.500 C 467 338.475, 466.550 336, 466 336 C 465.450 336, 465 337.650, 465 339.667 L 465 343.333 461.542 339.417 L 458.083 335.500 458.192 341.500 M 253.364 338.493 C 253.018 339.396, 253.214 340.614, 253.800 341.200 C 255.324 342.724, 258.210 341.331, 257.812 339.265 C 257.369 336.963, 254.165 336.407, 253.364 338.493 M 271 338.941 C 271 341.500, 272.723 342.475, 274.556 340.953 C 275.671 340.028, 275.752 339.406, 274.890 338.367 C 273.231 336.369, 271 336.698, 271 338.941 M 406 339.500 C 406 341.482, 406.439 342.062, 407.750 341.810 C 408.712 341.624, 409.500 340.585, 409.500 339.500 C 409.500 338.415, 408.712 337.376, 407.750 337.190 C 406.439 336.938, 406 337.518, 406 339.500 M 387.531 339.902 C 386.708 342.494, 387.218 343.317, 389.352 342.838 C 390.637 342.550, 390.667 342.140, 389.553 340.077 L 388.245 337.654 387.531 339.902 M 291.607 340.582 C 290.727 342.876, 290.798 343, 293 343 C 294.100 343, 295 342.812, 295 342.582 C 295 341.362, 293.681 339, 293 339 C 292.568 339, 291.941 339.712, 291.607 340.582 M 331.607 340.582 C 330.730 342.867, 330.802 343, 332.906 343 C 334.320 343, 334.678 342.483, 334.290 341 C 333.662 338.599, 332.441 338.408, 331.607 340.582" stroke="none" fill="#111111" fill-rule="evenodd"/><path d="M 344 122.067 C 334.089 124.654, 327.385 128.026, 319.223 134.533 C 309.454 142.320, 301.662 153.388, 298.628 163.789 C 291.490 188.254, 297.291 212.535, 314.259 229.210 L 319.051 233.920 316.776 235.332 C 315.524 236.108, 310.225 239.274, 305 242.368 L 295.500 247.992 331.090 247.996 C 362.784 248, 367.491 247.792, 374.090 246.102 C 389.424 242.173, 399.649 235.750, 408.910 224.230 C 418.710 212.039, 423 199.789, 423 184 C 423 165.765, 417.467 152.384, 404.598 139.496 C 387.892 122.766, 365.739 116.395, 344 122.067 M 349.250 156.989 C 346.993 158.365, 346 159.727, 346 161.445 C 346 163.854, 345.782 163.927, 337.750 164.210 L 329.500 164.500 329.801 187 C 330.046 205.249, 330.383 209.783, 331.585 211 C 332.800 212.229, 337.267 212.556, 356.284 212.808 C 369.053 212.977, 381.300 212.732, 383.500 212.265 L 387.500 211.414 387.784 200.707 C 387.944 194.681, 388.490 190, 389.034 190 C 389.603 190, 390 184.913, 390 177.607 C 390 163.330, 390.490 164, 380.043 164 C 373.317 164, 373.244 163.971, 372.659 161.043 C 371.826 156.879, 367.668 154.999, 359.300 155.004 C 354.286 155.006, 351.646 155.528, 349.250 156.989 M 352.250 159.220 C 351.012 159.817, 350 161.137, 350 162.153 C 350 163.819, 350.929 164, 359.500 164 C 368.057 164, 369 163.817, 369 162.161 C 369 161.149, 367.854 159.799, 366.453 159.161 C 363.307 157.727, 355.276 157.761, 352.250 159.220 M 344 177.474 L 344 188 348.878 188 C 351.993 188, 354.205 187.458, 355 186.500 C 355.685 185.675, 357.508 185, 359.051 185 C 360.594 185, 362.532 185.675, 363.357 186.500 C 364.299 187.442, 366.758 188, 369.964 188 L 375.070 188 374.785 177.750 L 374.500 167.500 359.250 167.224 L 344 166.948 344 177.474 M 333 177.393 C 333 187.285, 333.343 188, 338.082 188 C 339.845 188, 340 187.191, 340 178 L 340 168 336.500 168 L 333 168 333 177.393 M 379 178 C 379 187.191, 379.155 188, 380.918 188 C 385.657 188, 386 187.285, 386 177.393 L 386 168 382.500 168 L 379 168 379 178 M 357 189.930 C 357 191.487, 357.638 192, 359.573 192 C 362.856 192, 362.564 188.655, 359.240 188.180 C 357.539 187.938, 357 188.359, 357 189.930 M 334.211 199.750 L 334.500 208.500 359.500 208.500 L 384.500 208.500 384.789 199.750 L 385.078 191 382.105 191 C 379.606 191, 379.082 191.438, 378.816 193.750 C 378.432 197.092, 375.639 197.476, 375.180 194.250 C 374.895 192.238, 374.297 192, 369.537 192 C 365.728 192, 364.050 192.427, 363.638 193.500 C 363.282 194.427, 361.762 195, 359.654 195 C 357.779 195, 355.685 194.325, 355 193.500 C 354.209 192.547, 352.001 192, 348.947 192 C 344.722 192, 344.100 192.273, 343.820 194.250 C 343.361 197.476, 340.568 197.092, 340.184 193.750 C 339.918 191.438, 339.394 191, 336.895 191 L 333.922 191 334.211 199.750 M 464.417 292.500 C 464.418 302.950, 464.566 307.089, 464.746 301.698 C 464.926 296.307, 464.925 287.757, 464.744 282.698 C 464.563 277.639, 464.416 282.050, 464.417 292.500 M 537.413 302.500 C 537.414 312.400, 537.564 316.315, 537.746 311.199 C 537.928 306.084, 537.927 297.984, 537.744 293.199 C 537.561 288.415, 537.412 292.600, 537.413 302.500 M 151.750 297.723 C 153.537 297.945, 156.463 297.945, 158.250 297.723 C 160.037 297.502, 158.575 297.320, 155 297.320 C 151.425 297.320, 149.963 297.502, 151.750 297.723 M 269.310 341.500 C 269.315 344.800, 269.502 346.029, 269.725 344.232 C 269.947 342.435, 269.943 339.735, 269.715 338.232 C 269.486 336.729, 269.304 338.200, 269.310 341.500 M 457.310 341.500 C 457.315 344.800, 457.502 346.029, 457.725 344.232 C 457.947 342.435, 457.943 339.735, 457.715 338.232 C 457.486 336.729, 457.304 338.200, 457.310 341.500" stroke="none" fill="#fe4800" fill-rule="evenodd"/></svg>