<?xml version="1.0"?>
<svg width="380" height="59" xmlns="http://www.w3.org/2000/svg" xmlns:svg="http://www.w3.org/2000/svg" class="looka-1j8o68f">
 <g class="layer">
  <title>Layer 1</title>
  <g fill="#fe4800" id="SvgjsG20948" transform="matrix(0.812844 0 0 0.739239 70.9537 1.85795)">
   <g id="svg_1" xmlns="http://www.w3.org/2000/svg">
    <path d="m-51.72,6.72c-16.83,0 -30.47,14.09 -30.47,31.47c0,9.92 4.44,18.76 11.38,24.53l-11.38,6.95l30.47,0c16.83,0 30.47,-14.09 30.47,-31.48c0,-17.38 -13.64,-31.47 -30.47,-31.47zm14.6,33.31c0,0.57 -0.27,1.07 -0.7,1.36l0,8.92c0,0.94 -0.71,1.72 -1.61,1.79c-0.05,0 -4.96,0.38 -12.29,0.38c-7.33,0 -12.24,-0.38 -12.29,-0.38c-0.9,-0.07 -1.61,-0.86 -1.61,-1.79l0,-8.92c-0.42,-0.3 -0.7,-0.8 -0.7,-1.36l0,-10.2c0,-0.89 0.7,-1.62 1.56,-1.62l6.69,0l0,-1.57c0,-0.68 0.42,-1.38 1.01,-1.67l1.42,-0.72c0.41,-0.21 1.05,-0.36 1.51,-0.36l4.79,0c0.46,0 1.09,0.15 1.51,0.36l1.42,0.73c0.59,0.29 1.02,0.99 1.02,1.67l0,1.57l6.69,0c0.86,0 1.56,0.73 1.56,1.62l0,10.2z" id="svg_2"/>
    <path d="m-60.93,30.11l-3.57,0l0,9.71c0.48,0.03 1.74,0.11 3.57,0.19l0,-9.89z" id="svg_3"/>
    <path d="m-52.67,38.75l1.89,0c0.79,0 1.44,0.63 1.51,1.43c1.83,-0.02 3.51,-0.06 4.96,-0.11l0,-9.97l-14.85,0l0,9.97c1.46,0.05 3.14,0.09 4.97,0.11c0.07,-0.8 0.72,-1.43 1.51,-1.43z" id="svg_4"/>
    <path d="m-47.07,26.66c-0.01,-0.03 -0.05,-0.1 -0.08,-0.12l-1.42,-0.71c-0.18,-0.1 -0.56,-0.19 -0.77,-0.19l-4.79,0c-0.2,0 -0.59,0.09 -0.77,0.19l-1.41,0.71c-0.03,0.02 -0.07,0.09 -0.08,0.12l0,1.56l9.3,0l0,-1.56z" id="svg_5"/>
    <path d="m-52.67,40.22c-0.05,0 -0.09,0.05 -0.09,0.1l0,1.65c0,0.05 0.05,0.1 0.09,0.1l1.89,0c0.05,0 0.09,-0.05 0.09,-0.1l0,-1.65c0,-0.05 -0.05,-0.1 -0.09,-0.1l-1.89,0z" id="svg_6"/>
    <path d="m-42.52,43.6l0,0c0,0.51 -0.4,0.92 -0.89,0.92c-0.49,0 -0.89,-0.41 -0.89,-0.92l0,0l0,-1.64c-1.45,0.05 -3.14,0.1 -4.96,0.12c-0.05,0.81 -0.71,1.45 -1.52,1.45l-1.88,0c-0.8,0 -1.45,-0.65 -1.51,-1.45c-1.83,-0.02 -3.51,-0.06 -4.97,-0.12l0,1.64l0,0c0,0.51 -0.4,0.92 -0.88,0.92c-0.49,0 -0.89,-0.41 -0.89,-0.92l0,0l0,-1.7c-1.21,-0.05 -2.2,-0.1 -2.86,-0.15l0,8.47c0.69,0.05 5.34,0.37 12.06,0.37c6.73,0 11.38,-0.32 12.06,-0.37l0,-8.47c-0.66,0.04 -1.65,0.1 -2.86,0.15l0,1.7z" id="svg_7"/>
    <path d="m-42.52,40c1.82,-0.07 3.09,-0.15 3.57,-0.19l0,-9.71l-3.57,0l0,9.89z" id="svg_8"/>
   </g>
  </g>
  <g fill="#111111" id="SvgjsG20949" transform="matrix(1.75436 0 0 1.89157 8.2092 103.994)">
   <path d="m35.32,-45.7c3.14,0 5.06,1.92 5.06,4.62s-1.92,4.5 -5.06,4.5l-2.5,0l0,4.88l-2.2,0l0,-14l4.7,0zm-0.1,7.2c1.78,0 2.96,-0.84 2.96,-2.58s-1.18,-2.58 -2.96,-2.58l-2.4,0l0,5.16l2.4,0zm12.86,-3.76c0.22,0 0.42,0 0.62,0.04l0,2.06c-0.2,-0.04 -0.4,-0.04 -0.56,-0.04c-1.96,0 -3.56,1.4 -3.8,3.6l0,4.9l-2.16,0l0,-10.4l2.16,0l0,2.66c0.44,-1.54 1.78,-2.82 3.74,-2.82zm7.1,-0.02c1.88,0 3.12,1.12 3.38,1.8l0,-1.62l2.16,0l0,10.4l-2.16,0l0,-1.72c-0.26,0.84 -1.5,1.92 -3.38,1.92c-2.36,0 -5.18,-1.76 -5.18,-5.4c0,-3.58 2.82,-5.38 5.18,-5.38zm0.28,1.92c-1.62,0 -3.36,1.16 -3.36,3.46c0,2.32 1.74,3.48 3.36,3.48s3.2,-1.14 3.2,-3.48c0,-2.32 -1.58,-3.46 -3.2,-3.46zm12.44,-1.92c1.88,0 3.5,0.84 4.44,2.52l-1.68,0.76c-0.62,-0.84 -1.46,-1.36 -2.74,-1.36c-1.54,0 -3.3,1.16 -3.3,3.48c0,2.3 1.76,3.44 3.3,3.44c1.28,0 2.12,-0.5 2.74,-1.34l1.7,0.76c-0.96,1.68 -2.56,2.5 -4.46,2.5c-2.36,0 -5.38,-1.74 -5.38,-5.36c0,-3.6 3.02,-5.4 5.38,-5.4zm10.94,0c1.88,0 3.12,1.12 3.38,1.8l0,-1.62l2.16,0l0,10.4l-2.16,0l0,-1.72c-0.26,0.84 -1.5,1.92 -3.38,1.92c-2.36,0 -5.18,-1.76 -5.18,-5.4c0,-3.58 2.82,-5.38 5.18,-5.38zm0.28,1.92c-1.62,0 -3.36,1.16 -3.36,3.46c0,2.32 1.74,3.48 3.36,3.48s3.2,-1.14 3.2,-3.48c0,-2.32 -1.58,-3.46 -3.2,-3.46zm14.46,-5.54c3.76,0 7.2,2.96 7.2,7.2s-3.44,7.2 -7.2,7.2s-7.2,-2.96 -7.2,-7.2s3.44,-7.2 7.2,-7.2zm0,12.32c2.58,0 4.92,-2.12 4.92,-5.12s-2.34,-5.12 -4.92,-5.12s-4.92,2.12 -4.92,5.12s2.34,5.12 4.92,5.12zm14.22,-5.74c-0.36,-0.8 -0.94,-1.22 -1.72,-1.22c-0.8,0 -1.4,0.48 -1.4,1.14c0,0.6 0.34,1.02 1.18,1.32l1.14,0.4c1.64,0.58 3,1.2 3,3.1c0,2.02 -1.98,3.1 -3.9,3.1c-1.84,0 -3.52,-1.06 -3.92,-2.84l1.72,-0.52c0.3,0.94 1.08,1.62 2.2,1.62c0.92,0 1.76,-0.54 1.76,-1.36c0,-0.66 -0.46,-1.06 -1.34,-1.38l-1.18,-0.42c-1.92,-0.68 -2.76,-1.72 -2.76,-3.04c0,-1.74 1.56,-2.86 3.42,-2.86c1.8,0 3.04,0.98 3.6,2.46l-1.8,0.5zm9.2,-0.98l-2.2,0l0,5.82c0,0.56 0.2,1 0.84,1c0.54,0 0.92,-0.1 1.36,-0.28l0,1.82c-0.44,0.22 -1.02,0.36 -1.92,0.36c-1.3,0 -2.44,-0.52 -2.44,-2.82l0,-5.9l-1.44,0l0,-1.8l1.44,0l0,-2.44l2.16,0l0,2.44l2.2,0l0,1.8zm7.7,-1.96c0.22,0 0.42,0 0.62,0.04l0,2.06c-0.2,-0.04 -0.4,-0.04 -0.56,-0.04c-1.96,0 -3.56,1.4 -3.8,3.6l0,4.9l-2.16,0l0,-10.4l2.16,0l0,2.66c0.44,-1.54 1.78,-2.82 3.74,-2.82zm7.3,-0.02c2.36,0 5.38,1.8 5.38,5.4c0,3.62 -3.02,5.38 -5.38,5.38s-5.38,-1.76 -5.38,-5.38c0,-3.6 3.02,-5.4 5.38,-5.4zm0,1.92c-1.52,0 -3.28,1.16 -3.28,3.48c0,2.3 1.76,3.46 3.28,3.46s3.28,-1.16 3.28,-3.46c0,-2.32 -1.76,-3.48 -3.28,-3.48zm9.34,-5.48l0,14.14l-2.16,0l0,-14.14l2.16,0zm7.18,3.56c2.36,0 5.56,1.8 5.06,6.16l-8.28,0c0.32,1.86 1.8,2.78 3.48,2.78c1.38,0 2.12,-0.36 2.88,-0.96l1.22,1.16c-0.92,1.04 -2.24,1.64 -4.16,1.64c-2.64,0 -5.58,-1.8 -5.58,-5.38c0,-3.6 3.02,-5.4 5.38,-5.4zm0,1.86c-1.34,0 -2.84,0.9 -3.2,2.72l6.36,0c-0.24,-1.82 -1.82,-2.72 -3.16,-2.72zm12.64,-1.84c2,0 3.96,1.3 3.96,4.54l0,6.02l-2.16,0l0,-5.9c0,-1.98 -0.94,-2.76 -2.28,-2.76c-1.72,0 -2.84,1.6 -3.08,2.62l0,6.04l-2.16,0l0,-10.4l2.16,0l0,2.2c0.2,-0.64 1.4,-2.36 3.56,-2.36zm13.38,10.56l-4.08,-4.44l-1.18,1.22l0,3.22l-2.16,0l0,-3.54l0,-10.6l2.16,0l0,8.28l4.24,-4.54l2.6,0l-4.32,4.54l5.26,5.86l-2.52,0zm8.8,-10.58c1.88,0 3.12,1.12 3.38,1.8l0,-1.62l2.16,0l0,10.4l-2.16,0l0,-1.72c-0.26,0.84 -1.5,1.92 -3.38,1.92c-2.36,0 -5.18,-1.76 -5.18,-5.4c0,-3.58 2.82,-5.38 5.18,-5.38zm0.28,1.92c-1.62,0 -3.36,1.16 -3.36,3.46c0,2.32 1.74,3.48 3.36,3.48s3.2,-1.14 3.2,-3.48c0,-2.32 -1.58,-3.46 -3.2,-3.46zm8.32,8.76c-0.76,0 -1.26,-0.5 -1.26,-1.26s0.5,-1.26 1.26,-1.26s1.26,0.5 1.26,1.26s-0.5,1.26 -1.26,1.26zm8.6,-10.68c2.36,0 5.18,1.8 5.18,5.38c0,3.64 -2.82,5.4 -5.18,5.4c-1.88,0 -3.12,-1.08 -3.38,-1.92l0,5.52l-2.16,0l0,-6.34l0,-7.86l2.16,0l0,1.62c0.26,-0.68 1.5,-1.8 3.38,-1.8zm-0.28,8.86c1.62,0 3.36,-1.16 3.36,-3.48c0,-2.3 -1.74,-3.46 -3.36,-3.46s-3.2,1.14 -3.2,3.46c0,2.34 1.58,3.48 3.2,3.48zm9.42,-12.42l0,14.14l-2.16,0l0,-14.14l2.16,0z" fill="#000000" id="svg_9"/>
  </g>
  <g fill="#111111" id="svg_10" transform="matrix(1.91564 0 0 2.10672 10.4717 107.172)"/>
 </g>
</svg>